<svg width="85" height="72" viewBox="0 0 85 72" fill="none" xmlns="http://www.w3.org/2000/svg">
<mask id="path-1-inside-1_313_27" fill="white">
<path d="M21.3018 0L42.499 23.9248L63.6982 0H85L53.1504 35.9463L84.999 71.8926H63.6982L42.5 47.9668L21.3018 71.8926H0L31.8486 35.9463L0 0H21.3018Z"/>
</mask>
<path d="M21.3018 0L22.7987 -1.32631L22.2018 -2H21.3018V0ZM42.499 23.9248L41.0021 25.2511L42.499 26.9406L43.9959 25.2512L42.499 23.9248ZM63.6982 0V-2H62.7982L62.2013 -1.32637L63.6982 0ZM85 0L86.4969 1.32634L89.4442 -2H85V0ZM53.1504 35.9463L51.6535 34.62L50.4783 35.9463L51.6534 37.2726L53.1504 35.9463ZM84.999 71.8926V73.8926H89.4431L86.496 70.5663L84.999 71.8926ZM63.6982 71.8926L62.2013 73.2189L62.7982 73.8926H63.6982V71.8926ZM42.5 47.9668L43.997 46.6405L42.5 44.9509L41.003 46.6405L42.5 47.9668ZM21.3018 71.8926V73.8926H22.2018L22.7987 73.2189L21.3018 71.8926ZM0 71.8926L-1.49696 70.5663L-4.4441 73.8926H0V71.8926ZM31.8486 35.9463L33.3456 37.2726L34.5207 35.9463L33.3456 34.62L31.8486 35.9463ZM0 0V-2H-4.4441L-1.49696 1.32632L0 0ZM21.3018 0L19.8048 1.32631L41.0021 25.2511L42.499 23.9248L43.996 22.5985L22.7987 -1.32631L21.3018 0ZM42.499 23.9248L43.9959 25.2512L65.1951 1.32637L63.6982 0L62.2013 -1.32637L41.0021 22.5984L42.499 23.9248ZM63.6982 0V2H85V0V-2H63.6982V0ZM85 0L83.5031 -1.32634L51.6535 34.62L53.1504 35.9463L54.6473 37.2726L86.4969 1.32634L85 0ZM53.1504 35.9463L51.6534 37.2726L83.5021 73.2189L84.999 71.8926L86.496 70.5663L54.6474 34.62L53.1504 35.9463ZM84.999 71.8926V69.8926H63.6982V71.8926V73.8926H84.999V71.8926ZM63.6982 71.8926L65.1952 70.5663L43.997 46.6405L42.5 47.9668L41.003 49.2931L62.2013 73.2189L63.6982 71.8926ZM42.5 47.9668L41.003 46.6405L19.8048 70.5663L21.3018 71.8926L22.7987 73.2189L43.997 49.2931L42.5 47.9668ZM21.3018 71.8926V69.8926H0V71.8926V73.8926H21.3018V71.8926ZM0 71.8926L1.49696 73.2189L33.3456 37.2726L31.8486 35.9463L30.3517 34.62L-1.49696 70.5663L0 71.8926ZM31.8486 35.9463L33.3456 34.62L1.49696 -1.32632L0 0L-1.49696 1.32632L30.3517 37.2726L31.8486 35.9463ZM0 0V2H21.3018V0V-2H0V0Z" fill="black" mask="url(#path-1-inside-1_313_27)"/>
</svg>
