<svg width="335" height="97" viewBox="0 0 335 97" fill="none" xmlns="http://www.w3.org/2000/svg">
<mask id="path-1-outside-1_118_122" maskUnits="userSpaceOnUse" x="0" y="0" width="335" height="97" fill="black">
<rect fill="white" width="335" height="97"/>
<path d="M15.7194 48.67C15.7194 69.967 26.5384 82.77 44.5184 82.77C59.0574 82.77 68.3264 74.431 71.3334 58.59H84.3534C80.6644 81.22 65.6914 94.86 44.4874 94.86C19.6564 94.86 2.69938 76.136 2.69938 48.67C2.69938 21.173 19.6564 2.48 44.4874 2.48C65.6914 2.48 80.6644 16.12 84.3534 38.75H71.3334C68.3264 22.909 59.0574 14.57 44.5184 14.57C26.5384 14.57 15.7194 27.373 15.7194 48.67ZM93.6408 48.67C93.6408 21.173 110.598 2.48 135.491 2.48C160.384 2.48 177.372 21.173 177.372 48.67C177.372 76.136 160.384 94.86 135.491 94.86C110.598 94.86 93.6408 76.136 93.6408 48.67ZM106.661 48.67C106.661 69.967 117.48 82.77 135.491 82.77C153.502 82.77 164.352 69.967 164.352 48.67C164.352 27.373 153.502 14.57 135.491 14.57C117.48 14.57 106.661 27.373 106.661 48.67ZM186.965 93V4.34H216.136C243.509 4.34 261.675 22.01 261.675 48.67C261.675 75.299 243.509 93 216.136 93H186.965ZM199.675 80.91H216.136C236.41 80.91 248.655 68.758 248.655 48.67C248.655 28.582 236.41 16.43 216.136 16.43H199.675V80.91ZM271.247 4.34H331.139V16.43H284.267V42.718H327.419V54.808H284.267V80.91H332.379V93H271.247V4.34Z"/>
</mask>
<path d="M71.3334 58.59V56.59H69.6773L69.3685 58.217L71.3334 58.59ZM84.3534 58.59L86.3273 58.9118L86.7058 56.59H84.3534V58.59ZM84.3534 38.75V40.75H86.7058L86.3273 38.4282L84.3534 38.75ZM71.3334 38.75L69.3685 39.123L69.6773 40.75H71.3334V38.75ZM15.7194 48.67H13.7194C13.7194 59.6353 16.5041 68.6698 21.8485 74.9969C27.2292 81.3671 35.019 84.77 44.5184 84.77V82.77V80.77C36.0378 80.77 29.428 77.7714 24.9043 72.4158C20.3441 67.0172 17.7194 59.0017 17.7194 48.67H15.7194ZM44.5184 82.77V84.77C52.1868 84.77 58.6461 82.5609 63.5893 78.1061C68.5122 73.6695 71.7385 67.1801 73.2983 58.963L71.3334 58.59L69.3685 58.217C67.9213 65.8409 65.0096 71.4415 60.9115 75.1347C56.8337 78.8096 51.389 80.77 44.5184 80.77V82.77ZM71.3334 58.59V60.59H84.3534V58.59V56.59H71.3334V58.59ZM84.3534 58.59L82.3794 58.2682C80.5938 69.2224 76.1049 77.8504 69.6423 83.7321C63.1911 89.6035 54.6415 92.86 44.4874 92.86V94.86V96.86C55.5373 96.86 65.0762 93.2965 72.3347 86.6904C79.5819 80.0946 84.424 70.5876 86.3273 58.9118L84.3534 58.59ZM44.4874 94.86V92.86C32.6026 92.86 22.7062 88.3932 15.7647 80.7228C8.80835 73.0359 4.69938 61.9939 4.69938 48.67H2.69938H0.699375C0.699375 62.8121 5.0689 74.8651 12.7988 83.4067C20.5436 91.9648 31.5411 96.86 44.4874 96.86V94.86ZM2.69938 48.67H4.69938C4.69938 35.3302 8.8086 24.2885 15.7644 16.606C22.7053 8.93974 32.6016 4.48 44.4874 4.48V2.48V0.479998C31.5422 0.479998 20.5444 5.36675 12.7991 13.9213C5.06865 22.4595 0.699375 34.5128 0.699375 48.67H2.69938ZM44.4874 2.48V4.48C54.6415 4.48 63.1911 7.73647 69.6423 13.6079C76.1049 19.4896 80.5938 28.1176 82.3794 39.0718L84.3534 38.75L86.3273 38.4282C84.424 26.7524 79.5819 17.2454 72.3347 10.6496C65.0762 4.04352 55.5373 0.479998 44.4874 0.479998V2.48ZM84.3534 38.75V36.75H71.3334V38.75V40.75H84.3534V38.75ZM71.3334 38.75L73.2983 38.377C71.7385 30.1599 68.5122 23.6705 63.5893 19.2339C58.6461 14.7791 52.1868 12.57 44.5184 12.57V14.57V16.57C51.389 16.57 56.8337 18.5304 60.9115 22.2053C65.0096 25.8985 67.9213 31.4991 69.3685 39.123L71.3334 38.75ZM44.5184 14.57V12.57C35.019 12.57 27.2292 15.9729 21.8485 22.343C16.5041 28.6702 13.7194 37.7047 13.7194 48.67H15.7194H17.7194C17.7194 38.3383 20.3441 30.3228 24.9043 24.9242C29.428 19.5686 36.0378 16.57 44.5184 16.57V14.57ZM93.6408 48.67H95.6408C95.6408 35.3302 99.75 24.289 106.713 16.6067C113.661 8.94079 123.573 4.48 135.491 4.48V2.48V0.479998C122.516 0.479998 111.503 5.36571 103.749 13.9205C96.0101 22.459 91.6408 34.5128 91.6408 48.67H93.6408ZM135.491 2.48V4.48C147.409 4.48 157.329 8.94096 164.285 16.6075C171.255 24.2901 175.372 35.3311 175.372 48.67H177.372H179.372C179.372 34.5118 174.994 22.4579 167.247 13.9197C159.486 5.36553 148.465 0.479998 135.491 0.479998V2.48ZM177.372 48.67H175.372C175.372 61.9929 171.256 73.0343 164.285 80.7212C157.328 88.392 147.408 92.86 135.491 92.86V94.86V96.86C148.466 96.86 159.487 91.966 167.248 83.4083C174.994 74.8667 179.372 62.8131 179.372 48.67H177.372ZM135.491 94.86V92.86C123.574 92.86 113.662 88.3922 106.713 80.722C99.7497 73.0354 95.6408 61.9939 95.6408 48.67H93.6408H91.6408C91.6408 62.8121 96.0103 74.8656 103.749 83.4075C111.502 91.9658 122.515 96.86 135.491 96.86V94.86ZM106.661 48.67H104.661C104.661 59.6353 107.446 68.6702 112.794 74.9975C118.179 81.3678 125.977 84.77 135.491 84.77V82.77V80.77C126.994 80.77 120.376 77.7707 115.849 72.4152C111.286 67.0168 108.661 59.0017 108.661 48.67H106.661ZM135.491 82.77V84.77C145.004 84.77 152.809 81.3681 158.202 74.9987C163.559 68.6717 166.352 59.6366 166.352 48.67H164.352H162.352C162.352 59.0004 159.72 67.0153 155.149 72.414C150.614 77.7704 143.988 80.77 135.491 80.77V82.77ZM164.352 48.67H166.352C166.352 37.7034 163.559 28.6683 158.202 22.3413C152.809 15.9719 145.004 12.57 135.491 12.57V14.57V16.57C143.988 16.57 150.614 19.5696 155.149 24.926C159.72 30.3247 162.352 38.3396 162.352 48.67H164.352ZM135.491 14.57V12.57C125.977 12.57 118.179 15.9721 112.794 22.3425C107.446 28.6698 104.661 37.7047 104.661 48.67H106.661H108.661C108.661 38.3383 111.286 30.3232 115.849 24.9248C120.376 19.5693 126.994 16.57 135.491 16.57V14.57ZM186.965 93H184.965V95H186.965V93ZM186.965 4.34V2.34H184.965V4.34H186.965ZM199.675 80.91H197.675V82.91H199.675V80.91ZM199.675 16.43V14.43H197.675V16.43H199.675ZM186.965 93H188.965V4.34H186.965H184.965V93H186.965ZM186.965 4.34V6.34H216.136V4.34V2.34H186.965V4.34ZM216.136 4.34V6.34C229.387 6.34 240.243 10.6095 247.776 17.9408C255.304 25.2672 259.675 35.8084 259.675 48.67H261.675H263.675C263.675 34.8716 258.964 23.2478 250.566 15.0742C242.172 6.9055 230.259 2.34 216.136 2.34V4.34ZM261.675 48.67H259.675C259.675 61.5156 255.304 72.0572 247.775 79.388C240.242 86.7233 229.386 91 216.136 91V93V95C230.26 95 242.173 90.4261 250.566 82.2538C258.964 74.0768 263.675 62.4534 263.675 48.67H261.675ZM216.136 93V91H186.965V93V95H216.136V93ZM199.675 80.91V82.91H216.136V80.91V78.91H199.675V80.91ZM216.136 80.91V82.91C226.673 82.91 235.355 79.7446 241.407 73.7431C247.461 67.7396 250.655 59.1236 250.655 48.67H248.655H246.655C246.655 58.3044 243.727 65.8084 238.59 70.9029C233.451 75.9994 225.873 78.91 216.136 78.91V80.91ZM248.655 48.67H250.655C250.655 38.2164 247.461 29.6004 241.407 23.5969C235.355 17.5954 226.673 14.43 216.136 14.43V16.43V18.43C225.873 18.43 233.451 21.3406 238.59 26.4371C243.727 31.5316 246.655 39.0356 246.655 48.67H248.655ZM216.136 16.43V14.43H199.675V16.43V18.43H216.136V16.43ZM199.675 16.43H197.675V80.91H199.675H201.675V16.43H199.675ZM271.247 4.34V2.34H269.247V4.34H271.247ZM331.139 4.34H333.139V2.34H331.139V4.34ZM331.139 16.43V18.43H333.139V16.43H331.139ZM284.267 16.43V14.43H282.267V16.43H284.267ZM284.267 42.718H282.267V44.718H284.267V42.718ZM327.419 42.718H329.419V40.718H327.419V42.718ZM327.419 54.808V56.808H329.419V54.808H327.419ZM284.267 54.808V52.808H282.267V54.808H284.267ZM284.267 80.91H282.267V82.91H284.267V80.91ZM332.379 80.91H334.379V78.91H332.379V80.91ZM332.379 93V95H334.379V93H332.379ZM271.247 93H269.247V95H271.247V93ZM271.247 4.34V6.34H331.139V4.34V2.34H271.247V4.34ZM331.139 4.34H329.139V16.43H331.139H333.139V4.34H331.139ZM331.139 16.43V14.43H284.267V16.43V18.43H331.139V16.43ZM284.267 16.43H282.267V42.718H284.267H286.267V16.43H284.267ZM284.267 42.718V44.718H327.419V42.718V40.718H284.267V42.718ZM327.419 42.718H325.419V54.808H327.419H329.419V42.718H327.419ZM327.419 54.808V52.808H284.267V54.808V56.808H327.419V54.808ZM284.267 54.808H282.267V80.91H284.267H286.267V54.808H284.267ZM284.267 80.91V82.91H332.379V80.91V78.91H284.267V80.91ZM332.379 80.91H330.379V93H332.379H334.379V80.91H332.379ZM332.379 93V91H271.247V93V95H332.379V93ZM271.247 93H273.247V4.34H271.247H269.247V93H271.247Z" fill="black" mask="url(#path-1-outside-1_118_122)"/>
</svg>
