<svg width="434" height="97" viewBox="0 0 434 97" fill="none" xmlns="http://www.w3.org/2000/svg">
<mask id="path-1-outside-1_118_120" maskUnits="userSpaceOnUse" x="0" y="0" width="434" height="97" fill="black">
<rect fill="white" width="434" height="97"/>
<path d="M2.94188 93V4.34H32.1129C59.4859 4.34 77.6519 22.01 77.6519 48.67C77.6519 75.299 59.4859 93 32.1129 93H2.94188ZM15.6519 80.91H32.1129C52.3869 80.91 64.6319 68.758 64.6319 48.67C64.6319 28.582 52.3869 16.43 32.1129 16.43H15.6519V80.91ZM87.2231 4.34H147.115V16.43H100.243V42.718H143.395V54.808H100.243V80.91H148.355V93H87.2231V4.34ZM190.781 2.48C211.954 2.48 225.718 13.361 225.718 31.062H213.008C213.008 20.77 203.894 14.26 190.688 14.26C179.621 14.26 168.027 18.848 168.027 29.047C168.027 37.975 176.924 39.494 190.967 41.602L195.555 42.284C210.59 44.547 228.942 47.399 228.942 67.518C228.942 85.932 213.597 94.86 191.897 94.86C168.058 94.86 153.767 84.103 153.767 65.472H166.477C166.477 76.508 176.242 83.08 191.68 83.08C204.979 83.08 216.201 78.244 216.201 67.27C216.201 57.443 207.149 55.955 194.532 54.064L188.766 53.196C173.576 50.902 155.317 48.236 155.317 29.326C155.317 11.563 171.437 2.48 190.781 2.48ZM250.036 4.34V93H237.016V4.34H250.036ZM272.719 48.67C272.719 70.029 282.949 82.925 300.526 82.925C317.049 82.925 329.418 71.92 330.007 57.35H299.348V45.57H342.438V93H330.038V67.983C325.822 84.165 313.267 94.86 296.93 94.86C275.137 94.86 259.699 75.485 259.699 48.67C259.699 21.204 276.625 2.48 301.487 2.48C321.854 2.48 337.447 15.035 341.26 35.03H328.24C325.171 21.948 315.251 14.57 301.518 14.57C283.538 14.57 272.719 27.373 272.719 48.67ZM431.733 4.34V93H410.591L365.734 12.679V93H353.024V4.34H376.026L419.023 81.313V4.34H431.733Z"/>
</mask>
<path d="M2.94188 93H0.941875V95H2.94188V93ZM2.94188 4.34V2.34H0.941875V4.34H2.94188ZM15.6519 80.91H13.6519V82.91H15.6519V80.91ZM15.6519 16.43V14.43H13.6519V16.43H15.6519ZM2.94188 93H4.94188V4.34H2.94188H0.941875V93H2.94188ZM2.94188 4.34V6.34H32.1129V4.34V2.34H2.94188V4.34ZM32.1129 4.34V6.34C45.3635 6.34 56.2195 10.6095 63.7524 17.9408C71.2802 25.2672 75.6519 35.8084 75.6519 48.67H77.6519H79.6519C79.6519 34.8716 74.9405 23.2478 66.5422 15.0742C58.1488 6.9055 46.2353 2.34 32.1129 2.34V4.34ZM77.6519 48.67H75.6519C75.6519 61.5156 71.2805 72.0572 63.752 79.388C56.2186 86.7233 45.3625 91 32.1129 91V93V95C46.2363 95 58.1496 90.4261 66.5425 82.2538C74.9402 74.0768 79.6519 62.4534 79.6519 48.67H77.6519ZM32.1129 93V91H2.94188V93V95H32.1129V93ZM15.6519 80.91V82.91H32.1129V80.91V78.91H15.6519V80.91ZM32.1129 80.91V82.91C42.6499 82.91 51.3316 79.7446 57.3834 73.7431C63.4373 67.7396 66.6319 59.1236 66.6319 48.67H64.6319H62.6319C62.6319 58.3044 59.704 65.8084 54.5668 70.9029C49.4276 75.9994 41.8498 78.91 32.1129 78.91V80.91ZM64.6319 48.67H66.6319C66.6319 38.2164 63.4373 29.6004 57.3834 23.5969C51.3316 17.5954 42.6499 14.43 32.1129 14.43V16.43V18.43C41.8498 18.43 49.4276 21.3406 54.5668 26.4371C59.704 31.5316 62.6319 39.0356 62.6319 48.67H64.6319ZM32.1129 16.43V14.43H15.6519V16.43V18.43H32.1129V16.43ZM15.6519 16.43H13.6519V80.91H15.6519H17.6519V16.43H15.6519ZM87.2231 4.34V2.34H85.2231V4.34H87.2231ZM147.115 4.34H149.115V2.34H147.115V4.34ZM147.115 16.43V18.43H149.115V16.43H147.115ZM100.243 16.43V14.43H98.2431V16.43H100.243ZM100.243 42.718H98.2431V44.718H100.243V42.718ZM143.395 42.718H145.395V40.718H143.395V42.718ZM143.395 54.808V56.808H145.395V54.808H143.395ZM100.243 54.808V52.808H98.2431V54.808H100.243ZM100.243 80.91H98.2431V82.91H100.243V80.91ZM148.355 80.91H150.355V78.91H148.355V80.91ZM148.355 93V95H150.355V93H148.355ZM87.2231 93H85.2231V95H87.2231V93ZM87.2231 4.34V6.34H147.115V4.34V2.34H87.2231V4.34ZM147.115 4.34H145.115V16.43H147.115H149.115V4.34H147.115ZM147.115 16.43V14.43H100.243V16.43V18.43H147.115V16.43ZM100.243 16.43H98.2431V42.718H100.243H102.243V16.43H100.243ZM100.243 42.718V44.718H143.395V42.718V40.718H100.243V42.718ZM143.395 42.718H141.395V54.808H143.395H145.395V42.718H143.395ZM143.395 54.808V52.808H100.243V54.808V56.808H143.395V54.808ZM100.243 54.808H98.2431V80.91H100.243H102.243V54.808H100.243ZM100.243 80.91V82.91H148.355V80.91V78.91H100.243V80.91ZM148.355 80.91H146.355V93H148.355H150.355V80.91H148.355ZM148.355 93V91H87.2231V93V95H148.355V93ZM87.2231 93H89.2231V4.34H87.2231H85.2231V93H87.2231ZM225.718 31.062V33.062H227.718V31.062H225.718ZM213.008 31.062H211.008V33.062H213.008V31.062ZM190.967 41.602L190.67 43.5798L190.672 43.5803L190.967 41.602ZM195.555 42.284L195.852 40.3063L195.849 40.3057L195.555 42.284ZM153.767 65.472V63.472H151.767V65.472H153.767ZM166.477 65.472H168.477V63.472H166.477V65.472ZM194.532 54.064L194.234 56.0417L194.235 56.0419L194.532 54.064ZM188.766 53.196L188.467 55.1736L188.468 55.1737L188.766 53.196ZM190.781 2.48V4.48C201.046 4.48 209.292 7.11862 214.93 11.687C220.521 16.2179 223.718 22.7784 223.718 31.062H225.718H227.718C227.718 21.6446 224.032 13.9141 217.448 8.57923C210.911 3.28187 201.688 0.479998 190.781 0.479998V2.48ZM225.718 31.062V29.062H213.008V31.062V33.062H225.718V31.062ZM213.008 31.062H215.008C215.008 25.2541 212.406 20.469 207.991 17.1951C203.629 13.9597 197.594 12.26 190.688 12.26V14.26V16.26C196.987 16.26 202.112 17.8153 205.608 20.4079C209.052 22.962 211.008 26.5779 211.008 31.062H213.008ZM190.688 14.26V12.26C184.921 12.26 178.889 13.4485 174.222 16.088C169.501 18.7585 166.027 23.0339 166.027 29.047H168.027H170.027C170.027 24.8611 172.349 21.743 176.192 19.5697C180.089 17.3655 185.387 16.26 190.688 16.26V14.26ZM168.027 29.047H166.027C166.027 31.6323 166.679 33.8354 168.026 35.6646C169.353 37.4668 171.235 38.7445 173.422 39.7112C177.702 41.6035 183.746 42.5405 190.67 43.5798L190.967 41.602L191.263 39.6242C184.144 38.5555 178.718 37.679 175.039 36.0528C173.246 35.2602 172.027 34.3524 171.247 33.293C170.486 32.2605 170.027 30.9257 170.027 29.047H168.027ZM190.967 41.602L190.672 43.5803L195.26 44.2623L195.555 42.284L195.849 40.3057L191.261 39.6237L190.967 41.602ZM195.555 42.284L195.257 44.2617C202.858 45.4058 210.831 46.651 216.932 49.9627C219.936 51.5935 222.41 53.69 224.143 56.4649C225.871 59.2328 226.942 62.8041 226.942 67.518H228.942H230.942C230.942 62.1724 229.718 57.8425 227.536 54.3465C225.357 50.8574 222.304 48.3273 218.84 46.4473C212.006 42.7375 203.286 41.4251 195.852 40.3063L195.555 42.284ZM228.942 67.518H226.942C226.942 76.081 223.417 82.2966 217.418 86.4499C211.323 90.6693 202.515 92.86 191.897 92.86V94.86V96.86C202.979 96.86 212.692 94.5867 219.695 89.7386C226.793 84.8244 230.942 77.369 230.942 67.518H228.942ZM191.897 94.86V92.86C180.244 92.86 171.196 90.2269 165.108 85.5648C159.091 80.9565 155.767 74.2187 155.767 65.472H153.767H151.767C151.767 75.3563 155.588 83.3125 162.676 88.7405C169.693 94.1146 179.71 96.86 191.897 96.86V94.86ZM153.767 65.472V67.472H166.477V65.472V63.472H153.767V65.472ZM166.477 65.472H164.477C164.477 71.6682 167.258 76.6759 172.151 80.0595C176.967 83.3893 183.713 85.08 191.68 85.08V83.08V81.08C184.209 81.08 178.353 79.4847 174.426 76.7695C170.578 74.1081 168.477 70.3118 168.477 65.472H166.477ZM191.68 83.08V85.08C198.525 85.08 205.045 83.8425 209.928 81.0221C214.905 78.1468 218.201 73.5886 218.201 67.27H216.201H214.201C214.201 71.9254 211.885 75.2722 207.927 77.5584C203.874 79.8995 198.133 81.08 191.68 81.08V83.08ZM216.201 67.27H218.201C218.201 64.4935 217.556 62.1496 216.247 60.2086C214.947 58.2806 213.1 56.91 210.96 55.8868C206.791 53.8924 201.032 53.0159 194.828 52.0861L194.532 54.064L194.235 56.0419C200.648 57.0031 205.724 57.8161 209.234 59.4952C210.935 60.3087 212.139 61.2709 212.931 62.4448C213.714 63.6058 214.201 65.133 214.201 67.27H216.201ZM194.532 54.064L194.829 52.0863L189.063 51.2183L188.766 53.196L188.468 55.1737L194.234 56.0417L194.532 54.064ZM188.766 53.196L189.064 51.2184C181.377 50.0574 173.372 48.8503 167.258 45.7126C164.246 44.1669 161.788 42.195 160.075 39.6069C158.371 37.0321 157.317 33.7157 157.317 29.326H155.317H153.317C153.317 34.3913 154.545 38.4994 156.739 41.8146C158.924 45.1165 161.98 47.5001 165.432 49.2714C172.245 52.7677 180.965 54.0406 188.467 55.1736L188.766 53.196ZM155.317 29.326H157.317C157.317 21.1434 160.989 15.0264 166.938 10.883C172.958 6.69008 181.388 4.48 190.781 4.48V2.48V0.479998C180.83 0.479998 171.528 2.81142 164.651 7.60073C157.704 12.4396 153.317 19.7456 153.317 29.326H155.317ZM250.036 4.34H252.036V2.34H250.036V4.34ZM250.036 93V95H252.036V93H250.036ZM237.016 93H235.016V95H237.016V93ZM237.016 4.34V2.34H235.016V4.34H237.016ZM250.036 4.34H248.036V93H250.036H252.036V4.34H250.036ZM250.036 93V91H237.016V93V95H250.036V93ZM237.016 93H239.016V4.34H237.016H235.016V93H237.016ZM237.016 4.34V6.34H250.036V4.34V2.34H237.016V4.34ZM330.007 57.35L332.006 57.4308L332.09 55.35H330.007V57.35ZM299.348 57.35H297.348V59.35H299.348V57.35ZM299.348 45.57V43.57H297.348V45.57H299.348ZM342.438 45.57H344.438V43.57H342.438V45.57ZM342.438 93V95H344.438V93H342.438ZM330.038 93H328.038V95H330.038V93ZM330.038 67.983H332.038L328.103 67.4788L330.038 67.983ZM341.26 35.03V37.03H343.678L343.225 34.6554L341.26 35.03ZM328.24 35.03L326.293 35.4868L326.655 37.03H328.24V35.03ZM272.719 48.67H270.719C270.719 59.6404 273.344 68.7027 278.475 75.0629C283.652 81.4799 291.204 84.925 300.526 84.925V82.925V80.925C292.272 80.925 285.921 77.9221 281.588 72.5514C277.21 67.1238 274.719 59.0586 274.719 48.67H272.719ZM300.526 82.925V84.925C317.945 84.925 331.367 73.242 332.006 57.4308L330.007 57.35L328.009 57.2692C327.47 70.598 316.154 80.925 300.526 80.925V82.925ZM330.007 57.35V55.35H299.348V57.35V59.35H330.007V57.35ZM299.348 57.35H301.348V45.57H299.348H297.348V57.35H299.348ZM299.348 45.57V47.57H342.438V45.57V43.57H299.348V45.57ZM342.438 45.57H340.438V93H342.438H344.438V45.57H342.438ZM342.438 93V91H330.038V93V95H342.438V93ZM330.038 93H332.038V67.983H330.038H328.038V93H330.038ZM330.038 67.983L328.103 67.4788C324.09 82.8813 312.256 92.86 296.93 92.86V94.86V96.86C314.279 96.86 327.555 85.4487 331.974 68.4872L330.038 67.983ZM296.93 94.86V92.86C276.629 92.86 261.699 74.8116 261.699 48.67H259.699H257.699C257.699 76.1584 273.646 96.86 296.93 96.86V94.86ZM259.699 48.67H261.699C261.699 35.3452 265.801 24.3032 272.753 16.6169C279.691 8.94711 289.587 4.48 301.487 4.48V2.48V0.479998C288.526 0.479998 277.528 5.37489 269.787 13.9336C262.061 22.4758 257.699 34.5288 257.699 48.67H259.699ZM301.487 2.48V4.48C320.921 4.48 335.668 16.3783 339.296 35.4046L341.26 35.03L343.225 34.6554C339.227 13.6917 322.788 0.479998 301.487 0.479998V2.48ZM341.26 35.03V33.03H328.24V35.03V37.03H341.26V35.03ZM328.24 35.03L330.188 34.5732C328.559 27.6328 325.08 22.0943 320.088 18.3017C315.104 14.515 308.746 12.57 301.518 12.57V14.57V16.57C308.024 16.57 313.492 18.314 317.668 21.4868C321.837 24.6537 324.852 29.3452 326.293 35.4868L328.24 35.03ZM301.518 14.57V12.57C292.019 12.57 284.229 15.9729 278.848 22.343C273.504 28.6702 270.719 37.7047 270.719 48.67H272.719H274.719C274.719 38.3383 277.344 30.3228 281.904 24.9242C286.428 19.5686 293.038 16.57 301.518 16.57V14.57ZM431.733 4.34H433.733V2.34H431.733V4.34ZM431.733 93V95H433.733V93H431.733ZM410.591 93L408.845 93.9752L409.417 95H410.591V93ZM365.734 12.679L367.48 11.7038L363.734 4.99597V12.679H365.734ZM365.734 93V95H367.734V93H365.734ZM353.024 93H351.024V95H353.024V93ZM353.024 4.34V2.34H351.024V4.34H353.024ZM376.026 4.34L377.772 3.36465L377.2 2.34H376.026V4.34ZM419.023 81.313L417.277 82.2883L421.023 88.9945V81.313H419.023ZM419.023 4.34V2.34H417.023V4.34H419.023ZM431.733 4.34H429.733V93H431.733H433.733V4.34H431.733ZM431.733 93V91H410.591V93V95H431.733V93ZM410.591 93L412.337 92.0248L367.48 11.7038L365.734 12.679L363.988 13.6542L408.845 93.9752L410.591 93ZM365.734 12.679H363.734V93H365.734H367.734V12.679H365.734ZM365.734 93V91H353.024V93V95H365.734V93ZM353.024 93H355.024V4.34H353.024H351.024V93H353.024ZM353.024 4.34V6.34H376.026V4.34V2.34H353.024V4.34ZM376.026 4.34L374.28 5.31534L417.277 82.2883L419.023 81.313L420.769 80.3377L377.772 3.36465L376.026 4.34ZM419.023 81.313H421.023V4.34H419.023H417.023V81.313H419.023ZM419.023 4.34V6.34H431.733V4.34V2.34H419.023V4.34Z" fill="black" mask="url(#path-1-outside-1_118_120)"/>
</svg>
