<svg width="824" height="97" viewBox="0 0 824 97" fill="none" xmlns="http://www.w3.org/2000/svg">
<mask id="path-1-outside-1_118_121" maskUnits="userSpaceOnUse" x="0" y="0" width="824" height="97" fill="black">
<rect fill="white" width="824" height="97"/>
<path d="M2.10594 93V4.34H43.2119C61.7499 4.34 74.9869 16.213 74.9869 32.86C74.9869 49.507 61.6879 61.535 43.2119 61.535H15.1259V93H2.10594ZM15.1259 49.445H42.1889C54.2789 49.445 61.9669 42.997 61.9669 32.86C61.9669 22.816 54.4029 16.43 42.4369 16.43H15.1259V49.445ZM118.742 2.48C139.915 2.48 153.679 13.361 153.679 31.062H140.969C140.969 20.77 131.855 14.26 118.649 14.26C107.582 14.26 95.9875 18.848 95.9875 29.047C95.9875 37.975 104.885 39.494 118.928 41.602L123.516 42.284C138.551 44.547 156.903 47.399 156.903 67.518C156.903 85.932 141.557 94.86 119.858 94.86C96.0185 94.86 81.7275 84.103 81.7275 65.472H94.4375C94.4375 76.508 104.203 83.08 119.641 83.08C132.94 83.08 144.162 78.244 144.162 67.27C144.162 57.443 135.11 55.955 122.493 54.064L116.727 53.196C101.537 50.902 83.2775 48.236 83.2775 29.326C83.2775 11.563 99.3975 2.48 118.742 2.48ZM222.562 4.34H237.287L202.257 59.303V93H189.237V59.396L154.548 4.34H169.614L195.933 46.779L222.562 4.34ZM246.454 48.67C246.454 69.967 257.273 82.77 275.253 82.77C289.792 82.77 299.061 74.431 302.068 58.59H315.088C311.399 81.22 296.426 94.86 275.222 94.86C250.391 94.86 233.434 76.136 233.434 48.67C233.434 21.173 250.391 2.48 275.222 2.48C296.426 2.48 311.399 16.12 315.088 38.75H302.068C299.061 22.909 289.792 14.57 275.253 14.57C257.273 14.57 246.454 27.373 246.454 48.67ZM399.085 4.34V93H386.065V54.808H338.325V93H325.305V4.34H338.325V42.718H386.065V4.34H399.085ZM408.656 48.67C408.656 21.173 425.613 2.48 450.506 2.48C475.399 2.48 492.387 21.173 492.387 48.67C492.387 76.136 475.399 94.86 450.506 94.86C425.613 94.86 408.656 76.136 408.656 48.67ZM421.676 48.67C421.676 69.967 432.495 82.77 450.506 82.77C468.517 82.77 479.367 69.967 479.367 48.67C479.367 27.373 468.517 14.57 450.506 14.57C432.495 14.57 421.676 27.373 421.676 48.67ZM501.981 4.34H515.001V80.91H560.633V93H501.981V4.34ZM563.051 48.67C563.051 21.173 580.008 2.48 604.901 2.48C629.794 2.48 646.782 21.173 646.782 48.67C646.782 76.136 629.794 94.86 604.901 94.86C580.008 94.86 563.051 76.136 563.051 48.67ZM576.071 48.67C576.071 69.967 586.89 82.77 604.901 82.77C622.912 82.77 633.762 69.967 633.762 48.67C633.762 27.373 622.912 14.57 604.901 14.57C586.89 14.57 576.071 27.373 576.071 48.67ZM668.465 48.67C668.465 70.029 678.695 82.925 696.272 82.925C712.795 82.925 725.164 71.92 725.753 57.35H695.094V45.57H738.184V93H725.784V67.983C721.568 84.165 709.013 94.86 692.676 94.86C670.883 94.86 655.445 75.485 655.445 48.67C655.445 21.204 672.371 2.48 697.233 2.48C717.6 2.48 733.193 15.035 737.006 35.03H723.986C720.917 21.948 710.997 14.57 697.264 14.57C679.284 14.57 668.465 27.373 668.465 48.67ZM805.508 4.34H820.233L785.203 59.303V93H772.183V59.396L737.494 4.34H752.56L778.879 46.779L805.508 4.34Z"/>
</mask>
<path d="M2.10594 93H0.105938V95H2.10594V93ZM2.10594 4.34V2.34H0.105938V4.34H2.10594ZM15.1259 61.535V59.535H13.1259V61.535H15.1259ZM15.1259 93V95H17.1259V93H15.1259ZM15.1259 49.445H13.1259V51.445H15.1259V49.445ZM15.1259 16.43V14.43H13.1259V16.43H15.1259ZM2.10594 93H4.10594V4.34H2.10594H0.105938V93H2.10594ZM2.10594 4.34V6.34H43.2119V4.34V2.34H2.10594V4.34ZM43.2119 4.34V6.34C60.8545 6.34 72.9869 17.5157 72.9869 32.86H74.9869H76.9869C76.9869 14.9103 62.6453 2.34 43.2119 2.34V4.34ZM74.9869 32.86H72.9869C72.9869 48.2154 60.7802 59.535 43.2119 59.535V61.535V63.535C62.5957 63.535 76.9869 50.7986 76.9869 32.86H74.9869ZM43.2119 61.535V59.535H15.1259V61.535V63.535H43.2119V61.535ZM15.1259 61.535H13.1259V93H15.1259H17.1259V61.535H15.1259ZM15.1259 93V91H2.10594V93V95H15.1259V93ZM15.1259 49.445V51.445H42.1889V49.445V47.445H15.1259V49.445ZM42.1889 49.445V51.445C48.5727 51.445 54.0143 49.7423 57.8968 46.4863C61.8169 43.1989 63.9669 38.4744 63.9669 32.86H61.9669H59.9669C59.9669 37.3826 58.273 40.9506 55.3266 43.4214C52.3426 45.9237 47.8952 47.445 42.1889 47.445V49.445ZM61.9669 32.86H63.9669C63.9669 27.2968 61.8515 22.611 57.9775 19.3487C54.1405 16.1175 48.7591 14.43 42.4369 14.43V16.43V18.43C48.0808 18.43 52.4644 19.9355 55.4009 22.4083C58.3004 24.85 59.9669 28.3792 59.9669 32.86H61.9669ZM42.4369 16.43V14.43H15.1259V16.43V18.43H42.4369V16.43ZM15.1259 16.43H13.1259V49.445H15.1259H17.1259V16.43H15.1259ZM153.679 31.062V33.062H155.679V31.062H153.679ZM140.969 31.062H138.969V33.062H140.969V31.062ZM118.928 41.602L118.631 43.5798L118.633 43.5803L118.928 41.602ZM123.516 42.284L123.813 40.3063L123.81 40.3057L123.516 42.284ZM81.7275 65.472V63.472H79.7275V65.472H81.7275ZM94.4375 65.472H96.4375V63.472H94.4375V65.472ZM122.493 54.064L122.195 56.0417L122.196 56.0419L122.493 54.064ZM116.727 53.196L116.428 55.1736L116.429 55.1737L116.727 53.196ZM118.742 2.48V4.48C129.007 4.48 137.253 7.11862 142.891 11.687C148.482 16.2179 151.679 22.7784 151.679 31.062H153.679H155.679C155.679 21.6446 151.993 13.9141 145.409 8.57923C138.872 3.28187 129.649 0.479998 118.742 0.479998V2.48ZM153.679 31.062V29.062H140.969V31.062V33.062H153.679V31.062ZM140.969 31.062H142.969C142.969 25.2541 140.367 20.469 135.952 17.1951C131.59 13.9597 125.555 12.26 118.649 12.26V14.26V16.26C124.948 16.26 130.073 17.8153 133.569 20.4079C137.013 22.962 138.969 26.5779 138.969 31.062H140.969ZM118.649 14.26V12.26C112.882 12.26 106.85 13.4485 102.183 16.088C97.4619 18.7585 93.9875 23.0339 93.9875 29.047H95.9875H97.9875C97.9875 24.8611 100.31 21.743 104.153 19.5697C108.05 17.3655 113.348 16.26 118.649 16.26V14.26ZM95.9875 29.047H93.9875C93.9875 31.6323 94.6397 33.8354 95.9865 35.6646C97.3135 37.4668 99.1959 38.7445 101.383 39.7112C105.663 41.6035 111.707 42.5405 118.631 43.5798L118.928 41.602L119.224 39.6242C112.105 38.5555 106.679 37.679 103 36.0528C101.207 35.2602 99.9877 34.3524 99.2076 33.293C98.4474 32.2605 97.9875 30.9257 97.9875 29.047H95.9875ZM118.928 41.602L118.633 43.5803L123.221 44.2623L123.516 42.284L123.81 40.3057L119.222 39.6237L118.928 41.602ZM123.516 42.284L123.218 44.2617C130.819 45.4058 138.792 46.651 144.893 49.9627C147.897 51.5935 150.371 53.69 152.104 56.4649C153.832 59.2328 154.903 62.8041 154.903 67.518H156.903H158.903C158.903 62.1724 157.679 57.8425 155.497 54.3465C153.318 50.8574 150.265 48.3273 146.801 46.4473C139.967 42.7375 131.247 41.4251 123.813 40.3063L123.516 42.284ZM156.903 67.518H154.903C154.903 76.081 151.378 82.2966 145.379 86.4499C139.284 90.6693 130.475 92.86 119.858 92.86V94.86V96.86C130.94 96.86 140.653 94.5867 147.656 89.7386C154.754 84.8244 158.903 77.369 158.903 67.518H156.903ZM119.858 94.86V92.86C108.205 92.86 99.1566 90.2269 93.0689 85.5648C87.0515 80.9565 83.7275 74.2187 83.7275 65.472H81.7275H79.7275C79.7275 75.3563 83.549 83.3125 90.6369 88.7405C97.6544 94.1146 107.671 96.86 119.858 96.86V94.86ZM81.7275 65.472V67.472H94.4375V65.472V63.472H81.7275V65.472ZM94.4375 65.472H92.4375C92.4375 71.6682 95.2191 76.6759 100.112 80.0595C104.928 83.3893 111.674 85.08 119.641 85.08V83.08V81.08C112.169 81.08 106.314 79.4847 102.387 76.7695C98.5384 74.1081 96.4375 70.3118 96.4375 65.472H94.4375ZM119.641 83.08V85.08C126.486 85.08 133.006 83.8425 137.888 81.0221C142.866 78.1468 146.162 73.5886 146.162 67.27H144.162H142.162C142.162 71.9254 139.846 75.2722 135.888 77.5584C131.835 79.8995 126.094 81.08 119.641 81.08V83.08ZM144.162 67.27H146.162C146.162 64.4935 145.517 62.1496 144.208 60.2086C142.908 58.2806 141.061 56.91 138.921 55.8868C134.752 53.8924 128.993 53.0159 122.789 52.0861L122.493 54.064L122.196 56.0419C128.609 57.0031 133.685 57.8161 137.195 59.4952C138.896 60.3087 140.1 61.2709 140.892 62.4448C141.675 63.6058 142.162 65.133 142.162 67.27H144.162ZM122.493 54.064L122.79 52.0863L117.024 51.2183L116.727 53.196L116.429 55.1737L122.195 56.0417L122.493 54.064ZM116.727 53.196L117.025 51.2184C109.338 50.0574 101.333 48.8503 95.2189 45.7126C92.2069 44.1669 89.7485 42.195 88.0356 39.6069C86.3315 37.0321 85.2775 33.7157 85.2775 29.326H83.2775H81.2775C81.2775 34.3913 82.5059 38.4994 84.7 41.8146C86.8854 45.1165 89.9411 47.5001 93.3926 49.2714C100.206 52.7677 108.926 54.0406 116.428 55.1736L116.727 53.196ZM83.2775 29.326H85.2775C85.2775 21.1434 88.9498 15.0264 94.8986 10.883C100.918 6.69008 109.348 4.48 118.742 4.48V2.48V0.479998C108.791 0.479998 99.4885 2.81142 92.6124 7.60073C85.6652 12.4396 81.2775 19.7456 81.2775 29.326H83.2775ZM222.562 4.34V2.34H221.456L220.868 3.277L222.562 4.34ZM237.287 4.34L238.974 5.41492L240.934 2.34H237.287V4.34ZM202.257 59.303L200.571 58.2281L200.257 58.7198V59.303H202.257ZM202.257 93V95H204.257V93H202.257ZM189.237 93H187.237V95H189.237V93ZM189.237 59.396H191.237V58.8185L190.93 58.3298L189.237 59.396ZM154.548 4.34V2.34H150.924L152.856 5.40615L154.548 4.34ZM169.614 4.34L171.314 3.28592L170.727 2.34H169.614V4.34ZM195.933 46.779L194.234 47.8331L195.924 50.5578L197.628 47.842L195.933 46.779ZM222.562 4.34V6.34H237.287V4.34V2.34H222.562V4.34ZM237.287 4.34L235.601 3.26508L200.571 58.2281L202.257 59.303L203.944 60.3779L238.974 5.41492L237.287 4.34ZM202.257 59.303H200.257V93H202.257H204.257V59.303H202.257ZM202.257 93V91H189.237V93V95H202.257V93ZM189.237 93H191.237V59.396H189.237H187.237V93H189.237ZM189.237 59.396L190.93 58.3298L156.241 3.27384L154.548 4.34L152.856 5.40615L187.545 60.4622L189.237 59.396ZM154.548 4.34V6.34H169.614V4.34V2.34H154.548V4.34ZM169.614 4.34L167.915 5.39407L194.234 47.8331L195.933 46.779L197.633 45.7249L171.314 3.28592L169.614 4.34ZM195.933 46.779L197.628 47.842L224.257 5.403L222.562 4.34L220.868 3.277L194.239 45.716L195.933 46.779ZM302.068 58.59V56.59H300.412L300.103 58.217L302.068 58.59ZM315.088 58.59L317.062 58.9118L317.44 56.59H315.088V58.59ZM315.088 38.75V40.75H317.44L317.062 38.4282L315.088 38.75ZM302.068 38.75L300.103 39.123L300.412 40.75H302.068V38.75ZM246.454 48.67H244.454C244.454 59.6353 247.238 68.6698 252.583 74.9969C257.964 81.3671 265.753 84.77 275.253 84.77V82.77V80.77C266.772 80.77 260.162 77.7714 255.639 72.4158C251.079 67.0172 248.454 59.0017 248.454 48.67H246.454ZM275.253 82.77V84.77C282.921 84.77 289.38 82.5609 294.324 78.1061C299.247 73.6695 302.473 67.1801 304.033 58.963L302.068 58.59L300.103 58.217C298.656 65.8409 295.744 71.4415 291.646 75.1347C287.568 78.8096 282.123 80.77 275.253 80.77V82.77ZM302.068 58.59V60.59H315.088V58.59V56.59H302.068V58.59ZM315.088 58.59L313.114 58.2682C311.328 69.2224 306.839 77.8504 300.377 83.7321C293.925 89.6035 285.376 92.86 275.222 92.86V94.86V96.86C286.272 96.86 295.811 93.2965 303.069 86.6904C310.316 80.0946 315.158 70.5876 317.062 58.9118L315.088 58.59ZM275.222 94.86V92.86C263.337 92.86 253.441 88.3932 246.499 80.7228C239.543 73.0359 235.434 61.9939 235.434 48.67H233.434H231.434C231.434 62.8121 235.803 74.8651 243.533 83.4067C251.278 91.9648 262.276 96.86 275.222 96.86V94.86ZM233.434 48.67H235.434C235.434 35.3302 239.543 24.2885 246.499 16.606C253.44 8.93974 263.336 4.48 275.222 4.48V2.48V0.479998C262.277 0.479998 251.279 5.36675 243.534 13.9213C235.803 22.4595 231.434 34.5128 231.434 48.67H233.434ZM275.222 2.48V4.48C285.376 4.48 293.925 7.73647 300.377 13.6079C306.839 19.4896 311.328 28.1176 313.114 39.0718L315.088 38.75L317.062 38.4282C315.158 26.7524 310.316 17.2454 303.069 10.6496C295.811 4.04352 286.272 0.479998 275.222 0.479998V2.48ZM315.088 38.75V36.75H302.068V38.75V40.75H315.088V38.75ZM302.068 38.75L304.033 38.377C302.473 30.1599 299.247 23.6705 294.324 19.2339C289.38 14.7791 282.921 12.57 275.253 12.57V14.57V16.57C282.123 16.57 287.568 18.5304 291.646 22.2053C295.744 25.8985 298.656 31.4991 300.103 39.123L302.068 38.75ZM275.253 14.57V12.57C265.753 12.57 257.964 15.9729 252.583 22.343C247.238 28.6702 244.454 37.7047 244.454 48.67H246.454H248.454C248.454 38.3383 251.079 30.3228 255.639 24.9242C260.162 19.5686 266.772 16.57 275.253 16.57V14.57ZM399.085 4.34H401.085V2.34H399.085V4.34ZM399.085 93V95H401.085V93H399.085ZM386.065 93H384.065V95H386.065V93ZM386.065 54.808H388.065V52.808H386.065V54.808ZM338.325 54.808V52.808H336.325V54.808H338.325ZM338.325 93V95H340.325V93H338.325ZM325.305 93H323.305V95H325.305V93ZM325.305 4.34V2.34H323.305V4.34H325.305ZM338.325 4.34H340.325V2.34H338.325V4.34ZM338.325 42.718H336.325V44.718H338.325V42.718ZM386.065 42.718V44.718H388.065V42.718H386.065ZM386.065 4.34V2.34H384.065V4.34H386.065ZM399.085 4.34H397.085V93H399.085H401.085V4.34H399.085ZM399.085 93V91H386.065V93V95H399.085V93ZM386.065 93H388.065V54.808H386.065H384.065V93H386.065ZM386.065 54.808V52.808H338.325V54.808V56.808H386.065V54.808ZM338.325 54.808H336.325V93H338.325H340.325V54.808H338.325ZM338.325 93V91H325.305V93V95H338.325V93ZM325.305 93H327.305V4.34H325.305H323.305V93H325.305ZM325.305 4.34V6.34H338.325V4.34V2.34H325.305V4.34ZM338.325 4.34H336.325V42.718H338.325H340.325V4.34H338.325ZM338.325 42.718V44.718H386.065V42.718V40.718H338.325V42.718ZM386.065 42.718H388.065V4.34H386.065H384.065V42.718H386.065ZM386.065 4.34V6.34H399.085V4.34V2.34H386.065V4.34ZM408.656 48.67H410.656C410.656 35.3302 414.766 24.289 421.728 16.6067C428.677 8.94079 438.588 4.48 450.506 4.48V2.48V0.479998C437.532 0.479998 426.518 5.36571 418.765 13.9205C411.026 22.459 406.656 34.5128 406.656 48.67H408.656ZM450.506 2.48V4.48C462.425 4.48 472.345 8.94096 479.301 16.6075C486.271 24.2901 490.387 35.3311 490.387 48.67H492.387H494.387C494.387 34.5118 490.01 22.4579 482.263 13.9197C474.502 5.36553 463.481 0.479998 450.506 0.479998V2.48ZM492.387 48.67H490.387C490.387 61.9929 486.271 73.0343 479.3 80.7212C472.344 88.392 462.424 92.86 450.506 92.86V94.86V96.86C463.482 96.86 474.503 91.966 482.263 83.4083C490.01 74.8667 494.387 62.8131 494.387 48.67H492.387ZM450.506 94.86V92.86C438.589 92.86 428.677 88.3922 421.729 80.722C414.765 73.0354 410.656 61.9939 410.656 48.67H408.656H406.656C406.656 62.8121 411.026 74.8656 418.764 83.4075C426.517 91.9658 437.531 96.86 450.506 96.86V94.86ZM421.676 48.67H419.676C419.676 59.6353 422.461 68.6702 427.81 74.9975C433.195 81.3678 440.993 84.77 450.506 84.77V82.77V80.77C442.009 80.77 435.392 77.7707 430.865 72.4152C426.301 67.0168 423.676 59.0017 423.676 48.67H421.676ZM450.506 82.77V84.77C460.02 84.77 467.825 81.3681 473.217 74.9987C478.574 68.6717 481.367 59.6366 481.367 48.67H479.367H477.367C477.367 59.0004 474.736 67.0153 470.165 72.414C465.63 77.7704 459.004 80.77 450.506 80.77V82.77ZM479.367 48.67H481.367C481.367 37.7034 478.574 28.6683 473.217 22.3413C467.825 15.9719 460.02 12.57 450.506 12.57V14.57V16.57C459.004 16.57 465.63 19.5696 470.165 24.926C474.736 30.3247 477.367 38.3396 477.367 48.67H479.367ZM450.506 14.57V12.57C440.993 12.57 433.195 15.9721 427.81 22.3425C422.461 28.6698 419.676 37.7047 419.676 48.67H421.676H423.676C423.676 38.3383 426.301 30.3232 430.865 24.9248C435.392 19.5693 442.009 16.57 450.506 16.57V14.57ZM501.981 4.34V2.34H499.981V4.34H501.981ZM515.001 4.34H517.001V2.34H515.001V4.34ZM515.001 80.91H513.001V82.91H515.001V80.91ZM560.633 80.91H562.633V78.91H560.633V80.91ZM560.633 93V95H562.633V93H560.633ZM501.981 93H499.981V95H501.981V93ZM501.981 4.34V6.34H515.001V4.34V2.34H501.981V4.34ZM515.001 4.34H513.001V80.91H515.001H517.001V4.34H515.001ZM515.001 80.91V82.91H560.633V80.91V78.91H515.001V80.91ZM560.633 80.91H558.633V93H560.633H562.633V80.91H560.633ZM560.633 93V91H501.981V93V95H560.633V93ZM501.981 93H503.981V4.34H501.981H499.981V93H501.981ZM563.051 48.67H565.051C565.051 35.3302 569.16 24.289 576.123 16.6067C583.071 8.94079 592.983 4.48 604.901 4.48V2.48V0.479998C591.926 0.479998 580.913 5.36571 573.159 13.9205C565.42 22.459 561.051 34.5128 561.051 48.67H563.051ZM604.901 2.48V4.48C616.819 4.48 626.739 8.94096 633.695 16.6075C640.666 24.2901 644.782 35.3311 644.782 48.67H646.782H648.782C648.782 34.5118 644.404 22.4579 636.658 13.9197C628.896 5.36553 617.876 0.479998 604.901 0.479998V2.48ZM646.782 48.67H644.782C644.782 61.9929 640.666 73.0343 633.695 80.7212C626.738 88.392 616.818 92.86 604.901 92.86V94.86V96.86C617.877 96.86 628.897 91.966 636.658 83.4083C644.404 74.8667 648.782 62.8131 648.782 48.67H646.782ZM604.901 94.86V92.86C592.984 92.86 583.072 88.3922 576.123 80.722C569.16 73.0354 565.051 61.9939 565.051 48.67H563.051H561.051C561.051 62.8121 565.421 74.8656 573.159 83.4075C580.912 91.9658 591.925 96.86 604.901 96.86V94.86ZM576.071 48.67H574.071C574.071 59.6353 576.856 68.6702 582.204 74.9975C587.59 81.3678 595.387 84.77 604.901 84.77V82.77V80.77C596.404 80.77 589.786 77.7707 585.259 72.4152C580.696 67.0168 578.071 59.0017 578.071 48.67H576.071ZM604.901 82.77V84.77C614.415 84.77 622.219 81.3681 627.612 74.9987C632.969 68.6717 635.762 59.6366 635.762 48.67H633.762H631.762C631.762 59.0004 629.13 67.0153 624.559 72.414C620.024 77.7704 613.398 80.77 604.901 80.77V82.77ZM633.762 48.67H635.762C635.762 37.7034 632.969 28.6683 627.612 22.3413C622.219 15.9719 614.415 12.57 604.901 12.57V14.57V16.57C613.398 16.57 620.024 19.5696 624.559 24.926C629.13 30.3247 631.762 38.3396 631.762 48.67H633.762ZM604.901 14.57V12.57C595.387 12.57 587.59 15.9721 582.204 22.3425C576.856 28.6698 574.071 37.7047 574.071 48.67H576.071H578.071C578.071 38.3383 580.696 30.3232 585.259 24.9248C589.786 19.5693 596.404 16.57 604.901 16.57V14.57ZM725.753 57.35L727.752 57.4308L727.836 55.35H725.753V57.35ZM695.094 57.35H693.094V59.35H695.094V57.35ZM695.094 45.57V43.57H693.094V45.57H695.094ZM738.184 45.57H740.184V43.57H738.184V45.57ZM738.184 93V95H740.184V93H738.184ZM725.784 93H723.784V95H725.784V93ZM725.784 67.983H727.784L723.849 67.4788L725.784 67.983ZM737.006 35.03V37.03H739.424L738.971 34.6554L737.006 35.03ZM723.986 35.03L722.039 35.4868L722.401 37.03H723.986V35.03ZM668.465 48.67H666.465C666.465 59.6404 669.09 68.7027 674.221 75.0629C679.398 81.4799 686.95 84.925 696.272 84.925V82.925V80.925C688.018 80.925 681.667 77.9221 677.334 72.5514C672.956 67.1238 670.465 59.0586 670.465 48.67H668.465ZM696.272 82.925V84.925C713.691 84.925 727.113 73.242 727.752 57.4308L725.753 57.35L723.755 57.2692C723.216 70.598 711.9 80.925 696.272 80.925V82.925ZM725.753 57.35V55.35H695.094V57.35V59.35H725.753V57.35ZM695.094 57.35H697.094V45.57H695.094H693.094V57.35H695.094ZM695.094 45.57V47.57H738.184V45.57V43.57H695.094V45.57ZM738.184 45.57H736.184V93H738.184H740.184V45.57H738.184ZM738.184 93V91H725.784V93V95H738.184V93ZM725.784 93H727.784V67.983H725.784H723.784V93H725.784ZM725.784 67.983L723.849 67.4788C719.836 82.8813 708.002 92.86 692.676 92.86V94.86V96.86C710.025 96.86 723.301 85.4487 727.72 68.4872L725.784 67.983ZM692.676 94.86V92.86C672.375 92.86 657.445 74.8116 657.445 48.67H655.445H653.445C653.445 76.1584 669.392 96.86 692.676 96.86V94.86ZM655.445 48.67H657.445C657.445 35.3452 661.547 24.3032 668.499 16.6169C675.437 8.94711 685.333 4.48 697.233 4.48V2.48V0.479998C684.272 0.479998 673.274 5.37489 665.533 13.9336C657.807 22.4758 653.445 34.5288 653.445 48.67H655.445ZM697.233 2.48V4.48C716.667 4.48 731.414 16.3783 735.042 35.4046L737.006 35.03L738.971 34.6554C734.973 13.6917 718.534 0.479998 697.233 0.479998V2.48ZM737.006 35.03V33.03H723.986V35.03V37.03H737.006V35.03ZM723.986 35.03L725.934 34.5732C724.305 27.6328 720.826 22.0943 715.834 18.3017C710.85 14.515 704.492 12.57 697.264 12.57V14.57V16.57C703.77 16.57 709.238 18.314 713.415 21.4868C717.583 24.6537 720.599 29.3452 722.039 35.4868L723.986 35.03ZM697.264 14.57V12.57C687.765 12.57 679.975 15.9729 674.595 22.343C669.25 28.6702 666.465 37.7047 666.465 48.67H668.465H670.465C670.465 38.3383 673.09 30.3228 677.65 24.9242C682.174 19.5686 688.784 16.57 697.264 16.57V14.57ZM805.508 4.34V2.34H804.402L803.814 3.277L805.508 4.34ZM820.233 4.34L821.919 5.41492L823.879 2.34H820.233V4.34ZM785.203 59.303L783.516 58.2281L783.203 58.7198V59.303H785.203ZM785.203 93V95H787.203V93H785.203ZM772.183 93H770.183V95H772.183V93ZM772.183 59.396H774.183V58.8185L773.875 58.3298L772.183 59.396ZM737.494 4.34V2.34H733.87L735.802 5.40615L737.494 4.34ZM752.56 4.34L754.259 3.28592L753.673 2.34H752.56V4.34ZM778.879 46.779L777.179 47.8331L778.869 50.5578L780.573 47.842L778.879 46.779ZM805.508 4.34V6.34H820.233V4.34V2.34H805.508V4.34ZM820.233 4.34L818.546 3.26508L783.516 58.2281L785.203 59.303L786.889 60.3779L821.919 5.41492L820.233 4.34ZM785.203 59.303H783.203V93H785.203H787.203V59.303H785.203ZM785.203 93V91H772.183V93V95H785.203V93ZM772.183 93H774.183V59.396H772.183H770.183V93H772.183ZM772.183 59.396L773.875 58.3298L739.186 3.27384L737.494 4.34L735.802 5.40615L770.491 60.4622L772.183 59.396ZM737.494 4.34V6.34H752.56V4.34V2.34H737.494V4.34ZM752.56 4.34L750.86 5.39407L777.179 47.8331L778.879 46.779L780.578 45.7249L754.259 3.28592L752.56 4.34ZM778.879 46.779L780.573 47.842L807.202 5.403L805.508 4.34L803.814 3.277L777.185 45.716L778.879 46.779Z" fill="black" mask="url(#path-1-outside-1_118_121)"/>
</svg>
